<?xml version="1.0" standalone="no"?>
<!DOCTYPE svg PUBLIC "-//W3C//DTD SVG 20010904//EN"
 "http://www.w3.org/TR/2001/REC-SVG-20010904/DTD/svg10.dtd">
<svg version="1.0" xmlns="http://www.w3.org/2000/svg"
 width="351.000000pt" height="351.000000pt" viewBox="0 0 351.000000 351.000000"
 preserveAspectRatio="xMidYMid meet">
<metadata>
Created by potrace 1.11, written by Peter Selinger 2001-2013
</metadata>
<g transform="translate(0.000000,351.000000) scale(0.100000,-0.100000)"
fill="#000000" stroke="none">
<path d="M1220 2503 c-45 -7 -152 -44 -199 -68 -274 -138 -427 -454 -367 -755
83 -414 516 -666 910 -530 107 36 179 82 271 173 l90 88 -24 18 c-23 18 -23
18 -105 -64 -208 -208 -498 -253 -759 -118 -150 78 -283 251 -323 419 -21 93
-15 255 14 344 54 164 173 301 325 374 51 24 117 50 147 57 77 18 222 15 299
-5 129 -35 282 -133 341 -219 27 -40 36 -43 63 -23 16 13 14 17 -27 69 -86
104 -226 192 -364 228 -71 18 -219 24 -292 12z"/>
<path d="M1225 2390 c-319 -69 -527 -380 -461 -690 26 -122 75 -211 164 -299
125 -124 240 -172 412 -172 168 0 286 48 408 166 39 39 72 76 72 82 0 7 -9 17
-19 23 -17 8 -29 0 -82 -56 -162 -168 -403 -209 -614 -105 -263 130 -367 439
-239 708 132 276 479 378 749 218 33 -19 85 -62 115 -94 51 -54 57 -58 75 -45
17 12 17 16 4 40 -18 35 -110 118 -166 151 -88 51 -171 75 -278 79 -55 2 -118
-1 -140 -6z"/>
<path d="M1228 2274 c-238 -57 -396 -292 -358 -532 38 -236 232 -402 470 -402
135 0 251 49 346 146 46 48 50 60 22 78 -13 8 -27 0 -67 -41 -96 -98 -239
-146 -368 -123 -226 39 -384 255 -346 474 24 143 104 251 231 313 73 37 80 38
182 38 102 0 109 -1 181 -37 49 -24 92 -55 123 -88 41 -44 49 -48 66 -37 11 6
20 16 20 21 0 6 -26 35 -58 66 -121 118 -283 163 -444 124z"/>
<path d="M2160 2279 c-77 -13 -170 -59 -220 -109 -117 -117 -134 -332 -38
-476 68 -100 152 -140 325 -152 l98 -7 3 -32 c5 -48 -20 -56 -156 -52 -79 3
-116 0 -119 -7 -6 -18 84 -38 174 -38 105 -1 136 18 141 86 2 32 -2 51 -16 68
-18 22 -30 25 -133 30 -67 4 -129 13 -149 22 -72 32 -117 75 -152 145 -30 61
-33 76 -33 153 0 110 26 171 102 240 71 65 148 90 277 90 136 0 257 -36 352
-105 17 -13 23 -13 39 -1 18 13 15 16 -44 54 -126 82 -297 116 -451 91z"/>
<path d="M2117 2173 c-59 -20 -131 -82 -159 -136 -48 -95 -29 -233 43 -312 59
-63 96 -78 224 -86 61 -3 122 -12 136 -18 60 -29 85 -142 43 -198 -40 -54 -79
-68 -184 -67 -76 1 -107 6 -156 26 -52 21 -64 23 -79 12 -17 -12 -13 -16 37
-39 115 -53 267 -59 355 -14 123 64 124 255 3 317 -36 18 -61 22 -131 22 -52
0 -104 6 -130 15 -146 52 -193 249 -88 369 56 63 108 81 239 81 112 0 178 -16
256 -61 38 -21 43 -22 55 -8 15 18 12 20 -63 59 -102 54 -299 72 -401 38z"/>
<path d="M1250 2165 c-106 -30 -186 -96 -237 -195 -25 -49 -28 -65 -28 -155 0
-87 3 -107 27 -157 34 -73 98 -137 174 -174 53 -26 69 -29 154 -29 82 0 103 4
152 27 31 14 78 48 104 74 l48 47 -24 19 c-23 19 -23 19 -52 -16 -16 -19 -57
-49 -92 -66 -54 -27 -74 -31 -136 -31 -127 0 -225 63 -282 181 -30 62 -31 176
-1 241 28 63 87 125 147 157 44 23 63 27 136 27 98 0 147 -20 216 -87 38 -36
43 -38 63 -26 11 7 21 16 21 19 0 4 -25 30 -55 57 -92 84 -222 118 -335 87z"/>
<path d="M2149 2084 c-142 -43 -169 -237 -47 -327 22 -16 50 -21 146 -27 145
-8 189 -28 237 -104 27 -44 30 -58 30 -126 0 -68 -3 -82 -30 -126 -77 -124
-308 -152 -493 -58 -57 28 -69 31 -81 20 -11 -12 -7 -18 25 -40 69 -45 150
-68 265 -73 80 -4 119 -1 162 11 122 36 197 132 197 256 0 116 -42 197 -126
246 -40 24 -61 28 -163 34 -64 4 -126 12 -139 19 -84 45 -81 200 5 244 67 35
233 28 315 -12 31 -15 41 -16 55 -6 16 12 14 15 -17 34 -77 46 -248 64 -341
35z"/>
<path d="M2185 1996 c-22 -9 -45 -23 -52 -33 -25 -33 -9 -114 26 -129 9 -4 66
-10 126 -14 124 -8 184 -31 241 -92 64 -67 79 -112 79 -228 0 -98 -2 -109 -30
-159 -36 -66 -91 -114 -164 -143 -47 -19 -75 -23 -181 -23 -146 0 -234 22
-321 80 -45 31 -54 34 -67 22 -12 -13 -9 -18 20 -40 149 -112 391 -144 572
-77 151 57 244 226 217 396 -32 206 -172 314 -406 314 -63 0 -85 11 -85 41 0
37 28 49 113 49 45 0 96 -4 114 -9 30 -9 53 0 53 21 0 26 -198 45 -255 24z"/>
</g>
</svg>
